
<svg version="1.1" id="Capa_1" xmlns="http://www.w3.org/2000/svg" xmlns:xlink="http://www.w3.org/1999/xlink" x="0px" y="0px"
	 viewBox="0 0 512.001 512.001" style="enable-background:new 0 0 512.001 512.001;" xml:space="preserve">
<g>
	<g>
		<path d="M142.976,280.946c-4.142,0-7.5,3.358-7.5,7.5v12.703c0,4.142,3.358,7.5,7.5,7.5s7.5-3.358,7.5-7.5v-12.703
			C150.477,284.304,147.118,280.946,142.976,280.946z"/>
	</g>
</g>
<g>
	<g>
		<path d="M283.353,280.946c-4.142,0-7.5,3.358-7.5,7.5v12.703c0,4.142,3.358,7.5,7.5,7.5s7.5-3.358,7.5-7.5v-12.703
			C290.853,284.304,287.495,280.946,283.353,280.946z"/>
	</g>
</g>
<g>
	<g>
		<path d="M239.386,295.474c-3.118-2.726-7.857-2.408-10.583,0.71c-3.807,4.355-9.507,6.853-15.638,6.853
			s-11.831-2.498-15.638-6.853c-2.726-3.119-7.464-3.437-10.583-0.711c-3.119,2.727-3.437,7.464-0.71,10.583
			c6.656,7.614,16.472,11.981,26.932,11.981s20.275-4.367,26.932-11.98C242.822,302.938,242.504,298.2,239.386,295.474z"/>
	</g>
</g>
<g>
	<g>
		<path d="M510.614,223.333c-7.952-17.388-25.261-31.008-46.301-36.433c-15.294-3.943-30.731-3.167-43.859,1.766
			c-8.478-23.013-25.89-41.668-51.886-55.532c-0.017-0.009-0.032-0.022-0.05-0.032c-22.982-12.261-52.846-20.718-88.764-25.137
			c-20.1-2.475-42.5-3.73-66.589-3.73c-24.082,0-46.483,1.255-66.589,3.73c-35.918,4.418-65.782,12.875-88.764,25.138
			c-0.019,0.01-0.037,0.024-0.056,0.035C10.022,158.597,0,195.813,0,222.554c0,5.709,2.125,10.674,6.145,14.358
			c3.136,2.874,7.351,4.956,12.995,6.306c-6.406,13.408-9.656,28.567-9.656,45.227c0,34.539,13.71,62.111,40.751,81.953
			c3.339,2.45,8.033,1.73,10.484-1.61c2.45-3.34,1.729-8.033-1.61-10.484c-23.3-17.095-34.626-39.947-34.626-69.859
			c0-16.352,3.555-30.919,10.575-43.367c5.736,0.163,12.399-0.036,20.337-0.596c27.287-1.927,54.376-6.19,81.544-9.285
			c20.993-2.395,48.63-5.143,76.224-5.143c25.458,0,50.951,2.26,76.228,5.144c24.985,2.851,49.889,6.592,74.949,8.765
			c7.052,0.614,14.137,1.106,21.218,1.158c0.074,2.528,0.279,5.078,0.614,7.639c0.005,0.04,0.011,0.08,0.017,0.12
			c1.809,13.488,7.19,26.836,15.587,37.582c0.017,0.021,0.032,0.044,0.049,0.066c-0.67,37.352-19.499,63.839-57.505,80.932
			c-31.432,14.136-75.559,21.305-131.155,21.305c-53.934,0-97.117-6.756-128.35-20.081c-3.811-1.625-8.216,0.145-9.842,3.956
			c-1.625,3.81,0.146,8.216,3.955,9.841c33.104,14.123,78.268,21.284,134.236,21.284c57.731,0,103.928-7.612,137.308-22.625
			c38.735-17.42,60.667-44.689,65.393-81.183c3.599,2.534,7.412,4.669,11.408,6.297c6.527,2.659,14.571,0.356,18.638-5.651
			c9.508-14.042,12.656-32.831,8.847-51.41c18.721,3.023,37.363-0.912,50.992-11.001
			C511.59,237.871,513.635,229.939,510.614,223.333z M16.28,225.854c-0.769-0.704-1.28-1.535-1.28-3.3
			c0-26.853,11.148-48.854,33.198-65.621c-0.008,0.034-0.015,0.07-0.022,0.105c-5.282,23.858-4.17,49.094,2.876,72.467
			c0.022,0.074,0.042,0.147,0.065,0.221C32.007,230.841,20.306,229.544,16.28,225.854z M133.768,125.026
			c-9.012,18.974-14.24,39.908-14.083,60.967c0.088,11.815,1.954,23.599,5.692,34.814c0.068,0.205,0.127,0.41,0.197,0.615
			c-16.635,1.993-33.243,4.259-49.897,6.089c-3.069,0.342-6.139,0.667-9.212,0.968c-0.04-0.121-0.079-0.241-0.119-0.362
			c-6.879-21.075-8.206-43.835-3.927-65.582c1.623-8.248,3.658-14.311,4.837-17.441c17.839-9.092,40.168-15.852,66.556-20.159
			C133.797,124.964,133.783,124.996,133.768,125.026z M203.655,215.159c-17.212,0.374-34.408,1.417-51.521,3.319
			c-3.752,0.374-7.501,0.769-11.249,1.182c-0.035-0.094-0.068-0.188-0.103-0.282c-9.687-26.047-6.635-55.078,3.465-80.517
			c2.237-5.633,4.798-11.164,7.789-16.438c16.434-1.874,34.428-2.929,53.627-3.146v95.84h0.001
			C204.993,215.128,204.325,215.145,203.655,215.159z M289.647,204.861c-0.971,4.918-2.337,9.755-4.077,14.456
			c-0.042,0.115-0.082,0.229-0.125,0.344c-18.97-2.091-38.007-3.746-57.087-4.352c-2.563-0.082-5.128-0.15-7.693-0.192v-95.84
			c19.2,0.217,37.193,1.272,53.628,3.146C279.942,132.41,297.141,166.903,289.647,204.861z M359.992,228.085
			c-0.043,0.131-0.086,0.262-0.129,0.394c-1.236-0.121-4.101-0.414-4.281-0.433c-16.328-1.724-32.605-3.914-48.901-5.907
			c-1.967-0.24-3.943-0.48-5.933-0.718c0.013-0.038,0.023-0.076,0.036-0.114c13.423-39.698,0.828-77.047-8.267-96.373
			c26.389,4.308,48.717,11.068,66.562,20.171c4.723,12.202,6.783,25.381,7.222,38.415c0.003,0.087,0.007,0.173,0.009,0.26
			C366.77,198.749,364.65,213.851,359.992,228.085z M399.971,201.869c-6.816,7.755-11.312,17.536-13.29,28.261
			c-0.067,0-7.627-0.147-11.332-0.388c-0.046-0.003-0.093-0.006-0.139-0.009c0.023-0.076,0.043-0.151,0.066-0.227
			c2.911-9.642,4.816-19.586,5.659-29.623c1.201-14.296,0.277-28.808-2.78-42.828c-0.007-0.031-0.013-0.064-0.02-0.095
			c14.117,10.772,23.803,23.757,28.919,38.79C404.822,197.342,400.231,201.574,399.971,201.869z M496.826,230.135
			c-11.769,8.712-28.77,11.342-45.475,7.035c-1.665-0.43-3.364-0.943-5.048-1.527c-5.955-2.065-11.743,3.99-9.434,9.839
			c0.654,1.657,1.239,3.333,1.739,4.98c5.006,16.509,3.093,33.605-5.117,45.73c-0.118,0.174-0.363,0.249-0.558,0.169
			c-26.333-10.688-38.689-45.81-29.236-71.627c0.035-0.096,0.073-0.191,0.109-0.287c8.488-22.744,35.32-28.552,56.762-23.024
			c16.705,4.307,30.314,14.829,36.404,28.147C497.06,229.762,496.996,230.01,496.826,230.135z"/>
	</g>
</g>
<g>
</g>
<g>
</g>
<g>
</g>
<g>
</g>
<g>
</g>
<g>
</g>
<g>
</g>
<g>
</g>
<g>
</g>
<g>
</g>
<g>
</g>
<g>
</g>
<g>
</g>
<g>
</g>
<g>
</g>
</svg>
